<?xml version="1.0" standalone="no"?>
<!DOCTYPE svg PUBLIC "-//W3C//DTD SVG 20010904//EN"
 "http://www.w3.org/TR/2001/REC-SVG-20010904/DTD/svg10.dtd">
<svg version="1.0" xmlns="http://www.w3.org/2000/svg"
 width="768.000000pt" height="768.000000pt" viewBox="0 0 768.000000 768.000000"
 preserveAspectRatio="xMidYMid meet">
<metadata>
Created by potrace 1.14, written by Peter Selinger 2001-2017
</metadata>
<g transform="translate(0.000000,768.000000) scale(0.100000,-0.100000)"
fill="#000000" stroke="none">
<path d="M1529 7675 c-2 -2 -24 -6 -49 -8 -175 -20 -372 -102 -530 -219 -101
-75 -227 -200 -301 -300 -183 -247 -256 -556 -198 -838 24 -117 70 -272 79
-268 4 2 48 21 98 42 l92 40 -6 55 c-3 31 -7 67 -10 81 -10 58 -4 170 15 240
25 97 62 162 129 228 173 170 420 178 861 27 351 -120 551 -142 884 -95 118
17 285 50 412 81 44 11 91 22 105 25 14 2 38 10 53 16 15 6 29 9 32 7 2 -3
-47 -56 -108 -119 -62 -63 -144 -151 -182 -195 -39 -44 -73 -82 -76 -85 -3 -3
-44 -57 -91 -120 -135 -182 -216 -322 -272 -473 -36 -96 -90 -290 -101 -367
-4 -25 -9 -54 -11 -65 -2 -11 -7 -47 -10 -80 -4 -33 -8 -63 -10 -66 -13 -23
-24 -481 -13 -544 8 -42 17 -111 24 -181 l4 -41 -57 13 c-133 30 -203 39 -327
39 -225 -1 -390 -53 -594 -189 -90 -60 -238 -192 -312 -279 l-32 -38 27 -24
c68 -59 110 -90 117 -88 5 2 32 18 61 37 158 100 326 135 548 113 343 -34 576
-267 649 -647 6 -30 12 -65 15 -77 3 -12 8 -65 12 -118 4 -52 8 -105 8 -117 3
-36 -3 -40 -32 -19 -65 46 -266 133 -337 147 -11 2 -42 8 -70 13 -211 40 -438
-53 -648 -266 l-67 -69 42 -51 c24 -28 49 -54 57 -57 7 -4 43 3 80 15 297 92
572 2 759 -251 73 -98 131 -243 147 -365 6 -51 7 -180 1 -223 -3 -18 -8 -52
-11 -75 -3 -23 -11 -60 -17 -82 -6 -22 -12 -45 -14 -52 -6 -31 -30 -95 -60
-161 -19 -41 -34 -75 -34 -77 0 -16 -118 -200 -189 -295 -89 -119 -300 -342
-419 -443 -38 -32 -77 -65 -88 -75 -81 -74 -315 -245 -511 -375 -84 -55 -153
-105 -153 -112 0 -6 5 -16 10 -21 6 -6 34 -49 63 -96 l52 -86 65 35 c333 179
741 363 1015 460 39 13 79 28 90 33 65 30 528 160 625 176 19 3 37 7 40 9 22
13 393 69 550 82 115 10 536 10 635 0 81 -9 263 -33 301 -41 12 -2 37 -7 55
-10 19 -3 49 -10 67 -15 18 -5 35 -10 37 -10 25 1 214 -51 340 -93 361 -121
770 -336 1091 -573 l71 -53 39 36 c58 53 159 147 249 232 44 41 131 122 194
180 62 58 128 119 146 135 17 17 85 80 150 140 66 61 136 126 156 145 57 55
238 222 275 255 l33 30 -41 45 c-23 25 -66 71 -95 102 l-53 57 -62 -57 c-34
-31 -78 -73 -99 -92 -20 -19 -88 -83 -150 -141 -63 -59 -129 -121 -147 -139
-33 -31 -34 -31 -60 -14 -15 10 -33 24 -40 31 -30 29 -313 223 -327 223 -2 0
-21 12 -42 26 -60 41 -276 147 -406 198 -180 73 -428 143 -597 170 -19 3 -46
8 -60 10 -165 30 -588 43 -762 23 -187 -20 -464 -68 -603 -104 -33 -8 -67 -16
-75 -18 -8 -2 -60 -15 -115 -29 -55 -15 -107 -28 -116 -30 -8 -2 -40 -12 -70
-21 -126 -39 -119 -39 -69 6 61 56 94 85 170 149 36 30 67 57 70 60 3 3 66 59
140 125 201 177 217 193 430 405 421 420 632 696 771 1012 86 196 164 480 185
675 3 31 7 64 9 72 23 123 24 587 1 821 -2 19 -7 71 -11 115 -22 273 -25 307
-30 345 -4 31 -9 89 -20 217 -2 23 -6 61 -9 85 -7 57 -21 200 -41 418 -4 36
-8 81 -10 100 -16 153 -19 202 -18 330 1 381 120 644 367 813 158 108 439 199
721 234 33 4 64 6 68 5 21 -6 15 33 -16 99 -19 41 -44 96 -57 123 l-22 49
-191 -6 c-106 -4 -203 -8 -217 -11 -14 -2 -54 -7 -90 -11 -36 -4 -72 -8 -80
-10 -8 -1 -33 -6 -55 -9 -22 -4 -47 -8 -55 -11 -8 -2 -27 -6 -41 -9 -42 -7
-168 -44 -239 -69 -252 -92 -447 -214 -631 -397 -245 -243 -410 -612 -455
-1020 -2 -25 -7 -63 -9 -85 -6 -48 -6 -460 0 -530 7 -84 16 -198 20 -235 2
-19 6 -66 9 -105 4 -38 11 -113 16 -165 13 -130 19 -193 25 -270 3 -36 8 -78
10 -95 3 -16 7 -68 10 -115 4 -47 8 -96 10 -109 2 -13 7 -58 11 -100 4 -42 8
-89 10 -106 22 -218 22 -496 -1 -665 -3 -19 -7 -54 -10 -77 -39 -326 -156
-691 -317 -993 -81 -151 -271 -438 -317 -480 -3 -3 -26 -30 -51 -60 -102 -125
-291 -314 -435 -435 -26 -22 -64 -54 -84 -70 -20 -17 -61 -49 -91 -71 -30 -22
-73 -53 -95 -70 -68 -49 -105 -74 -105 -68 0 3 26 43 58 87 138 192 321 484
422 672 49 91 150 293 150 299 0 3 13 33 29 68 39 86 87 213 117 311 14 45 31
102 39 127 7 25 23 92 35 150 32 164 31 158 45 265 4 33 9 69 11 80 25 129 24
803 -1 1071 -2 27 -7 83 -10 124 -2 41 -7 100 -9 130 -3 30 -8 89 -11 130 -3
41 -7 91 -10 110 -2 19 -6 67 -10 105 -4 39 -8 84 -10 100 -2 17 -6 59 -10 95
-3 36 -8 81 -10 100 -2 19 -7 64 -10 100 -3 36 -8 81 -10 100 -5 46 -13 125
-21 230 -14 164 -8 450 10 546 3 12 7 37 10 55 34 218 121 423 253 602 118
159 382 414 601 581 34 26 62 49 62 51 0 2 -23 40 -50 84 l-51 79 -132 -63
c-233 -110 -473 -197 -617 -221 -14 -3 -31 -7 -39 -10 -21 -7 -129 -17 -191
-17 -154 0 -302 33 -615 139 -256 86 -500 152 -685 185 -53 10 -314 21 -321
14z"/>
</g>
</svg>
